<mxfile host="app.diagrams.net" modified="2021-04-09T07:48:51.654Z" agent="5.0 (Windows NT 10.0; Win64; x64) AppleWebKit/537.36 (KHTML, like Gecko) Chrome/89.0.4389.114 Safari/537.36" etag="TD1CuqUIWgxFerGukECi" version="14.5.8" type="github">
  <diagram id="R2lEEEUBdFMjLlhIrx00" name="Page-1">
    <mxGraphModel dx="782" dy="412" grid="1" gridSize="10" guides="1" tooltips="1" connect="1" arrows="1" fold="1" page="1" pageScale="1" pageWidth="850" pageHeight="1100" math="0" shadow="0" extFonts="Permanent Marker^https://fonts.googleapis.com/css?family=Permanent+Marker">
      <root>
        <mxCell id="0" />
        <mxCell id="1" parent="0" />
        <mxCell id="C9WdCsLVh079VOt3d4cy-19" style="edgeStyle=orthogonalEdgeStyle;rounded=0;orthogonalLoop=1;jettySize=auto;html=1;entryX=0;entryY=0.5;entryDx=0;entryDy=0;" parent="1" source="C9WdCsLVh079VOt3d4cy-1" target="C9WdCsLVh079VOt3d4cy-2" edge="1">
          <mxGeometry relative="1" as="geometry" />
        </mxCell>
        <mxCell id="C9WdCsLVh079VOt3d4cy-20" style="edgeStyle=orthogonalEdgeStyle;rounded=0;orthogonalLoop=1;jettySize=auto;html=1;entryX=0;entryY=0.5;entryDx=0;entryDy=0;" parent="1" source="C9WdCsLVh079VOt3d4cy-1" target="C9WdCsLVh079VOt3d4cy-3" edge="1">
          <mxGeometry relative="1" as="geometry" />
        </mxCell>
        <mxCell id="C9WdCsLVh079VOt3d4cy-21" style="edgeStyle=orthogonalEdgeStyle;rounded=0;orthogonalLoop=1;jettySize=auto;html=1;entryX=0;entryY=0.5;entryDx=0;entryDy=0;" parent="1" source="C9WdCsLVh079VOt3d4cy-1" target="C9WdCsLVh079VOt3d4cy-4" edge="1">
          <mxGeometry relative="1" as="geometry" />
        </mxCell>
        <mxCell id="C9WdCsLVh079VOt3d4cy-1" value="メインメニュー" style="rounded=0;whiteSpace=wrap;html=1;" parent="1" vertex="1">
          <mxGeometry x="40" y="40" width="120" height="60" as="geometry" />
        </mxCell>
        <mxCell id="C9WdCsLVh079VOt3d4cy-22" style="edgeStyle=orthogonalEdgeStyle;rounded=0;orthogonalLoop=1;jettySize=auto;html=1;entryX=0;entryY=0.5;entryDx=0;entryDy=0;" parent="1" source="C9WdCsLVh079VOt3d4cy-2" target="C9WdCsLVh079VOt3d4cy-6" edge="1">
          <mxGeometry relative="1" as="geometry" />
        </mxCell>
        <mxCell id="C9WdCsLVh079VOt3d4cy-23" style="edgeStyle=orthogonalEdgeStyle;rounded=0;orthogonalLoop=1;jettySize=auto;html=1;entryX=0;entryY=0.5;entryDx=0;entryDy=0;" parent="1" source="C9WdCsLVh079VOt3d4cy-2" target="C9WdCsLVh079VOt3d4cy-7" edge="1">
          <mxGeometry relative="1" as="geometry" />
        </mxCell>
        <mxCell id="C9WdCsLVh079VOt3d4cy-2" value="個人情報申請一覧&lt;br&gt;-検索" style="rounded=0;whiteSpace=wrap;html=1;fillColor=#ffe6cc;strokeColor=#d79b00;" parent="1" vertex="1">
          <mxGeometry x="160" y="120" width="120" height="60" as="geometry" />
        </mxCell>
        <mxCell id="C9WdCsLVh079VOt3d4cy-24" style="edgeStyle=orthogonalEdgeStyle;rounded=0;orthogonalLoop=1;jettySize=auto;html=1;entryX=0;entryY=0.5;entryDx=0;entryDy=0;" parent="1" source="C9WdCsLVh079VOt3d4cy-3" target="C9WdCsLVh079VOt3d4cy-10" edge="1">
          <mxGeometry relative="1" as="geometry" />
        </mxCell>
        <mxCell id="C9WdCsLVh079VOt3d4cy-25" style="edgeStyle=orthogonalEdgeStyle;rounded=0;orthogonalLoop=1;jettySize=auto;html=1;entryX=0;entryY=0.5;entryDx=0;entryDy=0;" parent="1" source="C9WdCsLVh079VOt3d4cy-3" target="C9WdCsLVh079VOt3d4cy-12" edge="1">
          <mxGeometry relative="1" as="geometry" />
        </mxCell>
        <mxCell id="C9WdCsLVh079VOt3d4cy-3" value="個人情報授受一覧&lt;br&gt;-検索" style="rounded=0;whiteSpace=wrap;html=1;fillColor=#fff2cc;strokeColor=#d6b656;" parent="1" vertex="1">
          <mxGeometry x="160" y="320" width="120" height="60" as="geometry" />
        </mxCell>
        <mxCell id="C9WdCsLVh079VOt3d4cy-26" style="edgeStyle=orthogonalEdgeStyle;rounded=0;orthogonalLoop=1;jettySize=auto;html=1;entryX=0;entryY=0.5;entryDx=0;entryDy=0;" parent="1" source="C9WdCsLVh079VOt3d4cy-4" target="C9WdCsLVh079VOt3d4cy-13" edge="1">
          <mxGeometry relative="1" as="geometry" />
        </mxCell>
        <mxCell id="C9WdCsLVh079VOt3d4cy-27" style="edgeStyle=orthogonalEdgeStyle;rounded=0;orthogonalLoop=1;jettySize=auto;html=1;entryX=0;entryY=0.5;entryDx=0;entryDy=0;" parent="1" source="C9WdCsLVh079VOt3d4cy-4" target="C9WdCsLVh079VOt3d4cy-14" edge="1">
          <mxGeometry relative="1" as="geometry" />
        </mxCell>
        <mxCell id="l__bAHWEUV27P4mJZuiP-9" style="edgeStyle=orthogonalEdgeStyle;rounded=0;orthogonalLoop=1;jettySize=auto;html=1;entryX=0;entryY=0.5;entryDx=0;entryDy=0;" edge="1" parent="1" source="C9WdCsLVh079VOt3d4cy-4" target="l__bAHWEUV27P4mJZuiP-8">
          <mxGeometry relative="1" as="geometry" />
        </mxCell>
        <mxCell id="C9WdCsLVh079VOt3d4cy-4" value="委託先管理メニュー" style="rounded=0;whiteSpace=wrap;html=1;fillColor=#dae8fc;strokeColor=#6c8ebf;" parent="1" vertex="1">
          <mxGeometry x="160" y="520" width="120" height="60" as="geometry" />
        </mxCell>
        <mxCell id="C9WdCsLVh079VOt3d4cy-6" value="新規作成・編集" style="rounded=0;whiteSpace=wrap;html=1;fillColor=#ffe6cc;strokeColor=#d79b00;" parent="1" vertex="1">
          <mxGeometry x="320" y="120" width="120" height="60" as="geometry" />
        </mxCell>
        <mxCell id="l__bAHWEUV27P4mJZuiP-4" style="edgeStyle=orthogonalEdgeStyle;rounded=0;orthogonalLoop=1;jettySize=auto;html=1;entryX=0.5;entryY=0;entryDx=0;entryDy=0;" edge="1" parent="1" source="C9WdCsLVh079VOt3d4cy-7" target="C9WdCsLVh079VOt3d4cy-10">
          <mxGeometry relative="1" as="geometry" />
        </mxCell>
        <mxCell id="C9WdCsLVh079VOt3d4cy-7" value="申請詳細&lt;br&gt;-承認・却下・完了&lt;br&gt;-承認状況&lt;br&gt;-削除" style="rounded=0;whiteSpace=wrap;html=1;fillColor=#ffe6cc;strokeColor=#d79b00;" parent="1" vertex="1">
          <mxGeometry x="320" y="201" width="120" height="60" as="geometry" />
        </mxCell>
        <mxCell id="l__bAHWEUV27P4mJZuiP-7" style="edgeStyle=orthogonalEdgeStyle;rounded=0;orthogonalLoop=1;jettySize=auto;html=1;fillColor=#fff2cc;strokeColor=#d6b656;" edge="1" parent="1" source="C9WdCsLVh079VOt3d4cy-10" target="l__bAHWEUV27P4mJZuiP-6">
          <mxGeometry relative="1" as="geometry" />
        </mxCell>
        <mxCell id="C9WdCsLVh079VOt3d4cy-10" value="新規作成・編集" style="rounded=0;whiteSpace=wrap;html=1;fillColor=#fff2cc;strokeColor=#d6b656;" parent="1" vertex="1">
          <mxGeometry x="320" y="320" width="120" height="60" as="geometry" />
        </mxCell>
        <mxCell id="C9WdCsLVh079VOt3d4cy-12" value="授受詳細&lt;br&gt;-承認・却下・完了&lt;br&gt;-承認状況" style="rounded=0;whiteSpace=wrap;html=1;fillColor=#fff2cc;strokeColor=#d6b656;" parent="1" vertex="1">
          <mxGeometry x="320" y="400" width="120" height="60" as="geometry" />
        </mxCell>
        <mxCell id="C9WdCsLVh079VOt3d4cy-28" style="edgeStyle=orthogonalEdgeStyle;rounded=0;orthogonalLoop=1;jettySize=auto;html=1;" parent="1" source="C9WdCsLVh079VOt3d4cy-13" target="C9WdCsLVh079VOt3d4cy-15" edge="1">
          <mxGeometry relative="1" as="geometry" />
        </mxCell>
        <mxCell id="C9WdCsLVh079VOt3d4cy-29" style="edgeStyle=orthogonalEdgeStyle;rounded=0;orthogonalLoop=1;jettySize=auto;html=1;entryX=0;entryY=0.5;entryDx=0;entryDy=0;" parent="1" source="C9WdCsLVh079VOt3d4cy-13" target="C9WdCsLVh079VOt3d4cy-16" edge="1">
          <mxGeometry relative="1" as="geometry" />
        </mxCell>
        <mxCell id="C9WdCsLVh079VOt3d4cy-13" value="調査表一覧" style="rounded=0;whiteSpace=wrap;html=1;fillColor=#dae8fc;strokeColor=#6c8ebf;" parent="1" vertex="1">
          <mxGeometry x="320" y="520" width="120" height="60" as="geometry" />
        </mxCell>
        <mxCell id="C9WdCsLVh079VOt3d4cy-30" style="edgeStyle=orthogonalEdgeStyle;rounded=0;orthogonalLoop=1;jettySize=auto;html=1;entryX=0;entryY=0.5;entryDx=0;entryDy=0;" parent="1" source="C9WdCsLVh079VOt3d4cy-14" target="C9WdCsLVh079VOt3d4cy-17" edge="1">
          <mxGeometry relative="1" as="geometry" />
        </mxCell>
        <mxCell id="C9WdCsLVh079VOt3d4cy-31" style="edgeStyle=orthogonalEdgeStyle;rounded=0;orthogonalLoop=1;jettySize=auto;html=1;entryX=0;entryY=0.5;entryDx=0;entryDy=0;" parent="1" source="C9WdCsLVh079VOt3d4cy-14" target="C9WdCsLVh079VOt3d4cy-18" edge="1">
          <mxGeometry relative="1" as="geometry" />
        </mxCell>
        <mxCell id="C9WdCsLVh079VOt3d4cy-14" value="評価表一覧" style="rounded=0;whiteSpace=wrap;html=1;fillColor=#dae8fc;strokeColor=#6c8ebf;" parent="1" vertex="1">
          <mxGeometry x="320" y="710" width="120" height="60" as="geometry" />
        </mxCell>
        <mxCell id="l__bAHWEUV27P4mJZuiP-5" style="edgeStyle=orthogonalEdgeStyle;rounded=0;orthogonalLoop=1;jettySize=auto;html=1;fillColor=#dae8fc;strokeColor=#6c8ebf;" edge="1" parent="1" source="C9WdCsLVh079VOt3d4cy-15" target="l__bAHWEUV27P4mJZuiP-1">
          <mxGeometry relative="1" as="geometry" />
        </mxCell>
        <mxCell id="C9WdCsLVh079VOt3d4cy-15" value="新規作成・編集" style="rounded=0;whiteSpace=wrap;html=1;fillColor=#dae8fc;strokeColor=#6c8ebf;" parent="1" vertex="1">
          <mxGeometry x="480" y="520" width="120" height="60" as="geometry" />
        </mxCell>
        <mxCell id="C9WdCsLVh079VOt3d4cy-16" value="調査表詳細&lt;br&gt;-承認・却下・完了&lt;br&gt;-承認状況" style="rounded=0;whiteSpace=wrap;html=1;fillColor=#dae8fc;strokeColor=#6c8ebf;" parent="1" vertex="1">
          <mxGeometry x="480" y="600" width="120" height="60" as="geometry" />
        </mxCell>
        <mxCell id="C9WdCsLVh079VOt3d4cy-17" value="新規作成・編集" style="rounded=0;whiteSpace=wrap;html=1;fillColor=#dae8fc;strokeColor=#6c8ebf;" parent="1" vertex="1">
          <mxGeometry x="480" y="710" width="120" height="60" as="geometry" />
        </mxCell>
        <mxCell id="C9WdCsLVh079VOt3d4cy-18" value="評価表詳細&lt;br&gt;-承認・却下・完了&lt;br&gt;-承認状況" style="rounded=0;whiteSpace=wrap;html=1;fillColor=#dae8fc;strokeColor=#6c8ebf;" parent="1" vertex="1">
          <mxGeometry x="480" y="790" width="120" height="60" as="geometry" />
        </mxCell>
        <mxCell id="l__bAHWEUV27P4mJZuiP-1" value="調査表フォーム" style="rounded=0;whiteSpace=wrap;html=1;fillColor=#dae8fc;strokeColor=#6c8ebf;" vertex="1" parent="1">
          <mxGeometry x="630" y="520" width="120" height="60" as="geometry" />
        </mxCell>
        <mxCell id="l__bAHWEUV27P4mJZuiP-6" value="お客様承認ページ" style="rounded=0;whiteSpace=wrap;html=1;fillColor=#fff2cc;strokeColor=#d6b656;" vertex="1" parent="1">
          <mxGeometry x="480" y="320" width="120" height="60" as="geometry" />
        </mxCell>
        <mxCell id="l__bAHWEUV27P4mJZuiP-11" style="edgeStyle=orthogonalEdgeStyle;rounded=0;orthogonalLoop=1;jettySize=auto;html=1;entryX=0;entryY=0.5;entryDx=0;entryDy=0;" edge="1" parent="1" source="l__bAHWEUV27P4mJZuiP-8" target="l__bAHWEUV27P4mJZuiP-10">
          <mxGeometry relative="1" as="geometry" />
        </mxCell>
        <mxCell id="l__bAHWEUV27P4mJZuiP-8" value="委託先一覧" style="rounded=0;whiteSpace=wrap;html=1;fillColor=#dae8fc;strokeColor=#6c8ebf;" vertex="1" parent="1">
          <mxGeometry x="320" y="870" width="120" height="60" as="geometry" />
        </mxCell>
        <mxCell id="l__bAHWEUV27P4mJZuiP-10" value="委託先詳細" style="rounded=0;whiteSpace=wrap;html=1;fillColor=#dae8fc;strokeColor=#6c8ebf;" vertex="1" parent="1">
          <mxGeometry x="480" y="870" width="120" height="60" as="geometry" />
        </mxCell>
      </root>
    </mxGraphModel>
  </diagram>
</mxfile>
